<?xml version="1.0" encoding="iso-8859-1"?>
<!-- Uploaded to: SVG Repo, www.svgrepo.com, Generator: SVG Repo Mixer Tools -->
<!DOCTYPE svg PUBLIC "-//W3C//DTD SVG 1.1//EN" "http://www.w3.org/Graphics/SVG/1.1/DTD/svg11.dtd">
<svg fill="#000000" height="800px" width="800px" version="1.1" id="Capa_1" xmlns="http://www.w3.org/2000/svg" xmlns:xlink="http://www.w3.org/1999/xlink" 
	 viewBox="0 0 493.105 493.105" xml:space="preserve">
<path d="M478.855,402.684H286.051v-1.527c0-6.155-5.007-11.162-11.161-11.162h-6.806v-54.093H356
	c74.347,0,134.832-60.485,134.832-134.831c0-74.347-60.485-134.833-134.832-134.833c-6.278,0-12.596,0.44-18.811,1.309
	c-26.462-27.631-63.382-43.432-101.661-43.432c-30.377,0-59.3,9.526-83.643,27.549c-23.09,17.095-40.131,40.31-49.417,67.275
	c-55.549,5.106-98.654,52.107-98.654,108.246c0,59.946,48.769,108.716,108.715,108.716h114.057v54.093h-8.369
	c-6.155,0-11.162,5.007-11.162,11.162v1.527H14.25c-7.858,0-14.25,6.392-14.25,14.25v25.115c0,7.857,6.392,14.25,14.25,14.25
	h192.805v1.529c0,6.155,5.007,11.162,11.162,11.162h56.673c6.154,0,11.161-5.007,11.161-11.162v-1.529h192.805
	c7.858,0,14.25-6.393,14.25-14.25v-25.115C493.105,409.076,486.713,402.684,478.855,402.684z M19.101,263.434h198.917
	c2.347,0,4.25-1.902,4.25-4.25c0-2.348-1.903-4.25-4.25-4.25H16.225c-2.544-8.816-3.911-18.125-3.911-27.748
	c0-2.352,0.085-4.684,0.247-6.997h92.562c2.347,0,4.25-1.902,4.25-4.25c0-2.348-1.903-4.25-4.25-4.25H13.524
	c7.131-45.517,45.139-81.403,92.362-84.492c1.74-0.114,3.233-1.278,3.768-2.938c3.084-9.571,7.191-18.579,12.145-26.953h52.419
	c2.347,0,4.25-1.902,4.25-4.25c0-2.348-1.903-4.25-4.25-4.25h-46.94c24.258-34.642,64.185-56.19,108.25-56.19
	c36.672,0,72.018,15.437,96.974,42.351c0.962,1.037,2.379,1.535,3.775,1.309c6.497-1.02,13.132-1.537,19.723-1.537
	c56.326,0,104.154,37.057,120.402,88.068H320.831c-2.347,0-4.25,1.902-4.25,4.25c0,2.348,1.903,4.25,4.25,4.25h157.95
	c2.315,9.549,3.551,19.515,3.551,29.765c0,69.659-56.672,126.331-126.332,126.331H112.529
	C70.047,327.401,33.659,300.828,19.101,263.434z M235.086,335.901h24.498v54.093h-24.498V335.901z M14.25,447.799
	c-3.17,0-5.75-2.579-5.75-5.75v-25.115c0-3.171,2.58-5.75,5.75-5.75h192.805v36.615H14.25z M277.551,457.828
	c0,1.468-1.194,2.662-2.661,2.662h-56.673c-1.468,0-2.662-1.194-2.662-2.662v-56.672c0-1.468,1.194-2.662,2.662-2.662h56.673
	c1.467,0,2.661,1.194,2.661,2.662V457.828z M484.605,442.049c0,3.171-2.58,5.75-5.75,5.75H286.051v-36.615h192.805
	c3.17,0,5.75,2.579,5.75,5.75V442.049z"/>
</svg>