<?xml version="1.0" encoding="iso-8859-1"?>
<!-- Generator: Adobe Illustrator 18.0.0, SVG Export Plug-In . SVG Version: 6.00 Build 0)  -->
<!DOCTYPE svg PUBLIC "-//W3C//DTD SVG 1.1//EN" "http://www.w3.org/Graphics/SVG/1.1/DTD/svg11.dtd">
<svg version="1.1" id="Capa_1" xmlns="http://www.w3.org/2000/svg" xmlns:xlink="http://www.w3.org/1999/xlink" x="0px" y="0px"
	 viewBox="0 0 60 60" style="enable-background:new 0 0 60 60;" xml:space="preserve">
<g>
	<path d="M59.188,44.863l-1.444-0.277c-0.677-0.13-1.21-0.573-1.462-1.216c-0.253-0.642-0.163-1.329,0.245-1.885l0.907-1.236
		c0.292-0.398,0.25-0.95-0.1-1.299l-1.959-1.958c-0.339-0.338-0.872-0.389-1.268-0.121l-1.217,0.824
		c-0.331,0.224-0.71,0.343-1.099,0.343c-0.844,0-1.787-0.576-1.956-1.676l-0.233-1.515C49.528,34.36,49.108,34,48.615,34h-2.77
		c-0.479,0-0.892,0.341-0.982,0.812l-0.358,1.865c-0.201,1.051-1.13,1.601-1.942,1.601c-0.389,0-0.769-0.118-1.099-0.342
		l-1.572-1.064c-0.397-0.268-0.929-0.217-1.268,0.121l-1.959,1.958c-0.35,0.349-0.392,0.9-0.1,1.299l0.907,1.236
		c0.408,0.556,0.498,1.243,0.245,1.885c-0.252,0.643-0.785,1.086-1.462,1.216l-1.444,0.277C34.341,44.954,34,45.366,34,45.846v2.77
		c0,0.493,0.36,0.913,0.848,0.988l1.515,0.233c0.683,0.105,1.232,0.528,1.508,1.16c0.276,0.633,0.212,1.323-0.175,1.895
		l-0.824,1.217c-0.269,0.396-0.218,0.929,0.121,1.268l1.958,1.959c0.348,0.348,0.899,0.391,1.299,0.1l1.236-0.907
		c0.342-0.252,0.742-0.385,1.156-0.385c0.813,0,1.742,0.551,1.944,1.602l0.277,1.444C44.954,59.659,45.366,60,45.846,60h2.77
		c0.493,0,0.913-0.36,0.988-0.848l0.164-1.065c0.169-1.1,1.113-1.676,1.958-1.676c0.413,0,0.813,0.134,1.156,0.386l0.869,0.638
		c0.4,0.292,0.951,0.249,1.299-0.1l1.958-1.959c0.339-0.339,0.39-0.871,0.121-1.268l-0.824-1.217
		c-0.387-0.571-0.451-1.262-0.175-1.895c0.275-0.632,0.825-1.055,1.508-1.16l1.515-0.233C59.64,49.528,60,49.108,60,48.615v-2.77
		C60,45.366,59.659,44.954,59.188,44.863z M58,47.758l-0.667,0.103c-1.354,0.208-2.489,1.082-3.036,2.337
		c-0.548,1.256-0.416,2.682,0.352,3.815l0.361,0.533l-0.768,0.768l-0.177-0.13c-0.689-0.505-1.498-0.772-2.34-0.772
		c-1.979,0-3.635,1.418-3.935,3.371L47.758,58h-1.086l-0.121-0.633c-0.359-1.868-2.004-3.225-3.909-3.225
		c-0.843,0-1.651,0.268-2.34,0.771l-0.544,0.399l-0.768-0.768l0.361-0.533c0.768-1.134,0.899-2.56,0.352-3.815
		c-0.547-1.255-1.683-2.129-3.036-2.337L36,47.758v-1.086l0.633-0.121c1.346-0.259,2.447-1.175,2.947-2.449
		c0.5-1.275,0.315-2.695-0.494-3.8l-0.399-0.544l0.768-0.768l0.889,0.602c0.662,0.448,1.43,0.686,2.22,0.686
		c1.905,0,3.548-1.355,3.907-3.224L46.672,36h1.086l0.103,0.667c0.301,1.953,1.955,3.371,3.934,3.371
		c0.789,0,1.556-0.237,2.219-0.687l0.533-0.361l0.768,0.768l-0.399,0.544c-0.81,1.104-0.994,2.524-0.494,3.8
		c0.5,1.274,1.602,2.19,2.947,2.449L58,46.672V47.758z"/>
	<path d="M47,42c-2.757,0-5,2.243-5,5s2.243,5,5,5s5-2.243,5-5S49.757,42,47,42z M47,50c-1.654,0-3-1.346-3-3s1.346-3,3-3
		s3,1.346,3,3S48.654,50,47,50z"/>
	<path d="M0.835,21C0.314,21.74,0,22.635,0,23.608v11.783C0,36.365,0.314,37.26,0.835,38h32.536l4.883-4.881
		c0.34-0.339,0.87-0.389,1.268-0.121l2.338,1.583l0.054-0.315l0.471-2.454C42.476,31.341,42.888,31,43.367,31h7.821
		c0.493,0,0.913,0.36,0.988,0.848l0.378,2.453l1.922-1.303c0.396-0.268,0.929-0.218,1.268,0.121l3.926,3.923
		C59.875,36.53,60,35.978,60,35.392V23.608c0-0.974-0.314-1.868-0.835-2.608H0.835z M10.5,34C8.019,34,6,31.981,6,29.5
		S8.019,25,10.5,25s4.5,2.019,4.5,4.5S12.981,34,10.5,34z M34,29c-0.552,0-1-0.448-1-1s0.448-1,1-1s1,0.448,1,1S34.552,29,34,29z
		 M38,29c-0.552,0-1-0.448-1-1s0.448-1,1-1s1,0.448,1,1S38.552,29,38,29z M42,29c-0.552,0-1-0.448-1-1s0.448-1,1-1s1,0.448,1,1
		S42.552,29,42,29z M46,29c-0.552,0-1-0.448-1-1s0.448-1,1-1s1,0.448,1,1S46.552,29,46,29z M50,29c-0.552,0-1-0.448-1-1s0.448-1,1-1
		s1,0.448,1,1S50.552,29,50,29z"/>
	<path d="M55.392,0H4.608C2.067,0,0,2.067,0,4.608v11.783C0,17.365,0.314,18.26,0.835,19h58.329C59.686,18.26,60,17.365,60,16.392
		V4.608C60,2.067,57.933,0,55.392,0z M10.5,15C8.019,15,6,12.981,6,10.5S8.019,6,10.5,6S15,8.019,15,10.5S12.981,15,10.5,15z M34,10
		c-0.552,0-1-0.448-1-1s0.448-1,1-1s1,0.448,1,1S34.552,10,34,10z M36,13c-0.552,0-1-0.448-1-1s0.448-1,1-1s1,0.448,1,1
		S36.552,13,36,13z M38,10c-0.552,0-1-0.448-1-1s0.448-1,1-1s1,0.448,1,1S38.552,10,38,10z M40,13c-0.552,0-1-0.448-1-1s0.448-1,1-1
		s1,0.448,1,1S40.552,13,40,13z M42,10c-0.552,0-1-0.448-1-1s0.448-1,1-1s1,0.448,1,1S42.552,10,42,10z M44,13c-0.552,0-1-0.448-1-1
		s0.448-1,1-1s1,0.448,1,1S44.552,13,44,13z M46,10c-0.552,0-1-0.448-1-1s0.448-1,1-1s1,0.448,1,1S46.552,10,46,10z M48,13
		c-0.552,0-1-0.448-1-1s0.448-1,1-1s1,0.448,1,1S48.552,13,48,13z M50,10c-0.552,0-1-0.448-1-1s0.448-1,1-1s1,0.448,1,1
		S50.552,10,50,10z M52,13c-0.552,0-1-0.448-1-1s0.448-1,1-1s1,0.448,1,1S52.552,13,52,13z"/>
	<path d="M32.998,54.477l1.303-1.923l-2.453-0.377C31.36,52.102,31,51.682,31,51.188v-7.821c0-0.479,0.341-0.892,0.812-0.982
		l2.28-0.438L32.662,40H0.835C0.314,40.74,0,41.635,0,42.608v11.783C0,56.933,2.067,59,4.608,59h31.764l-3.254-3.256
		C32.78,55.405,32.729,54.873,32.998,54.477z M10.5,53C8.019,53,6,50.981,6,48.5S8.019,44,10.5,44s4.5,2.019,4.5,4.5
		S12.981,53,10.5,53z"/>
</g>
<g>
</g>
<g>
</g>
<g>
</g>
<g>
</g>
<g>
</g>
<g>
</g>
<g>
</g>
<g>
</g>
<g>
</g>
<g>
</g>
<g>
</g>
<g>
</g>
<g>
</g>
<g>
</g>
<g>
</g>
</svg>
