<svg id="artwork" xmlns="http://www.w3.org/2000/svg" viewBox="0 0 1024 280"><defs><style>.cls-1{fill:#353535;}.cls-2{fill:#38586c;}.cls-3{fill:#d5c5b7;}.cls-4{fill:#fff;}</style></defs><title>skupperlogo_rgb_horz_reverse</title><path class="cls-1" d="M236.7,91.09l-3.21-.31c-.41-.07-5.33-.87-12.59-5.15a75,75,0,0,1-13.18-10.06,114.76,114.76,0,0,1-15.55-18.4,142.18,142.18,0,0,0-43.74-41.11c-19.37-11.6-34.06-14-38.1-14.51A79.54,79.54,0,0,0,101.4,1a53.66,53.66,0,0,0-8.62.66A37,37,0,0,0,73,11a39.87,39.87,0,0,0-10.64,17.7c-2.29,7.42-3.2,16.43-2.72,26.77a138.46,138.46,0,0,1-2.91,33.35A171.84,171.84,0,0,1,46,123a125.58,125.58,0,0,1-16.91,28.59c-6.47,8-13.27,13.74-20.21,17L5.89,170,1,172.28l1.85,5.09L4,180.44a44.26,44.26,0,0,0,18.43,21.5,24.74,24.74,0,0,0,16.43,3.24c1.72-.26,3.47-.57,5.24-.91,0,7.57,1.4,17,5.42,28.42,5.66,16.12,12.94,26.72,21.62,31.51a22.32,22.32,0,0,0,7.18,2.55,20.18,20.18,0,0,0,8.92-.52,8.32,8.32,0,0,0,5.33-5.52,14,14,0,0,0,.67-5.32c4,1,8.63,2.11,13.75,3,3.28.55,6.75,1,10.32,1.31a40,40,0,0,0,4.56,6.75c.53.62,1.08,1.23,1.67,1.81a22.29,22.29,0,0,0,1.9,1.7,16.7,16.7,0,0,0,4.72,2.71,12.06,12.06,0,0,0,2.92.66c.26,0,.52,0,.78,0h.39l.39,0H135a3.62,3.62,0,0,0,.46-.06,7.67,7.67,0,0,0,.93-.19,8,8,0,0,0,3.12-1.73,11,11,0,0,0,2-2.35,15.6,15.6,0,0,0,1.22-2.41,23.31,23.31,0,0,0,.82-2.39,33.08,33.08,0,0,0,.93-4.7q.09-.63.15-1.26c1.87-.43,3.69-.93,5.44-1.5a47.3,47.3,0,0,0,21.43-13.89c1.79,6.42,4.92,8.1,7,8.46l.33,0c1.75.19,4.39-.29,7.06-3.7a33.64,33.64,0,0,0,4.83-9.82c5.07-15,2.87-33.66,2.12-38.76h0s0-.09,0-.13c-.1-.65-.17-1.06-.19-1.17h0c-.21-1.19-.58-3.07-1-5.07.59-.39,1.17-.78,1.74-1.18,8.22-5.79,14.13-12.83,17.57-20.93a42.54,42.54,0,0,0,3.28-19.65c-.07-1-.17-1.9-.3-2.83.35.31.7.61,1.06.88a13,13,0,0,0,7.94,3,8.81,8.81,0,0,0,5-1.43l1.6-1.11.29-1.93a30.74,30.74,0,0,0-.09-8.06,29.14,29.14,0,0,0,2.62-2.6c3.45-3.91,5.91-9.16,7.51-16A97.62,97.62,0,0,0,242,100.41l.06-3.3.09-5.48Z"/><path class="cls-2" d="M232.82,96.68c-.22,0-22.42-2.58-45.54-36.14a136.32,136.32,0,0,0-41.9-39.38c-18.35-11-32-13.26-35.74-13.7a57.18,57.18,0,0,0-15.91.07A31.15,31.15,0,0,0,77.08,15.3a34,34,0,0,0-9,15.11C66,37.18,65.15,45.5,65.6,55.15a144.8,144.8,0,0,1-3,34.81A177.86,177.86,0,0,1,51.4,125.34a131.77,131.77,0,0,1-17.72,29.95c-7,8.71-14.54,15-22.29,18.65l-3,1.4,1.12,3.07a37.23,37.23,0,0,0,8.77,13c4.18,4,10.72,9.25,19.61,7.91,13.47-2,29.43-7.18,41.22-11.52a39.24,39.24,0,0,1-3-14.59,63.59,63.59,0,0,1-8,6.43c-1.23.88-2.39,1.71-3,2.25a6.49,6.49,0,0,1-4.48,1.84c-3,0-5.65-2.07-7.12-5.52-2.35-5.52-1.94-15.24,7-24.51a58.37,58.37,0,0,0,12.33-19.3c1.31-3,2.33-5.42,4.06-7.13s4.47-2.66,8.12-2.66a39.64,39.64,0,0,1,8.05,1c5.46-6.19,11.31-7.46,23.59-10.11,4.2-.91,9.42-2,15.81-3.61,19-4.65,30.77-5.63,37.33-5.63a46.81,46.81,0,0,1,5.44.28c1-.58,3.08-1.76,7.05-4.16,3.2-1.94,6-3.24,9.1-3.24,5,0,9,3.06,17.59,9.76,1.44,1.12,3.07,2.38,4.86,3.75a40.5,40.5,0,0,1,14.29,19.89c5.56-6.64,7.65-18.36,7.88-32.21l.05-3.31Z"/><path class="cls-3" d="M186.53,200.42c-.23-1.49-.5-2.95-.78-4.33-8.49,4.49-18.78,8-30.72,10.34A161.28,161.28,0,0,1,124,209.91c-17.75,0-30.84-4.44-38.89-13.2a32.86,32.86,0,0,1-2.92-3.7,281.17,281.17,0,0,1-31.47,9.82,79.94,79.94,0,0,0,4.86,27.73c2.83,8.05,6.07,14.62,9.64,19.53a28.79,28.79,0,0,0,9,8.5,14.4,14.4,0,0,0,11.2,1.48c.29-.09.74-.52,1.06-1.45.63-1.81.56-5-1.41-8.35h0a14,14,0,0,1-2.55.69l-1.27.15c-.43,0-.85,0-1.26,0a19.7,19.7,0,0,1-4.88-.59,39.47,39.47,0,0,0,4.59-1.17,15.06,15.06,0,0,0,3.94-1.93l.42-.31.39-.33a9.31,9.31,0,0,0,.72-.68,1.46,1.46,0,0,0,.16-.19l.16-.19.15-.18a1.39,1.39,0,0,0,.15-.19L86,245a1.27,1.27,0,0,0,.13-.19l.12-.21A11.12,11.12,0,0,0,87.54,241a19.89,19.89,0,0,0,.19-4.11,40.45,40.45,0,0,0-.49-4.3,78.17,78.17,0,0,0-2.12-8.74c-.22-.73-.43-1.47-.67-2.2l-.35-1.09-.17-.55-.18-.52a39.58,39.58,0,0,0-1.6-4A18.18,18.18,0,0,0,77.37,209,11.4,11.4,0,0,0,74,207.1a13.6,13.6,0,0,0-4.1-.7,20.81,20.81,0,0,0-4.46.41,29.1,29.1,0,0,0-4.55,1.3,13.52,13.52,0,0,1,1.85-1.61,18.85,18.85,0,0,1,6.81-3.21,14.69,14.69,0,0,1,5.35-.29,13.74,13.74,0,0,1,2.72.63,14.37,14.37,0,0,1,2.56,1.16,17.14,17.14,0,0,1,4.29,3.49,20.82,20.82,0,0,1,1.69,2.11c.52.73,1,1.48,1.42,2.24a34.25,34.25,0,0,1,2.17,4.7l.23.59.2.58.4,1.16c.13.38.25.78.37,1.17l.37,1.17a54.37,54.37,0,0,1,2,9.78,34.17,34.17,0,0,1,.11,5.17,20.66,20.66,0,0,1-1,5.3c-.16.44-.32.88-.5,1.31l-.3.64a6.35,6.35,0,0,1-.33.63,10.51,10.51,0,0,1-.86,1.34c0,.18,0,.34-.05.53.29.48.56,1,.81,1.46a145.68,145.68,0,0,0,23,4.74c-.36-1-.7-1.93-1-2.9-.24-.73-.45-1.46-.66-2.2s-.39-1.47-.55-2.22a38,38,0,0,1-.78-4.51c.86,1.27,1.67,2.54,2.49,3.79.41.63.81,1.26,1.22,1.88l1.22,1.85c1.63,2.47,3.27,4.89,5,7.2a63.07,63.07,0,0,0,5.35,6.49c.47.48,1,.94,1.44,1.39s1,.85,1.47,1.23a12.59,12.59,0,0,0,3,1.72,6,6,0,0,0,1.42.36l.34,0h.57l.17,0a1.88,1.88,0,0,0,.77-.37,4.89,4.89,0,0,0,1-1,11.57,11.57,0,0,0,.94-1.49c.3-.55.57-1.15.83-1.76a40.11,40.11,0,0,0,1.38-3.92c.82-2.72,1.47-5.57,2.1-8.46s1.18-5.82,1.82-8.8a43.2,43.2,0,0,1,.78,4.5c0,.37.09.75.13,1.13l.1,1.13c.07.76.12,1.52.16,2.28,0,.43,0,.87.05,1.3,1.12-.29,2.21-.61,3.28-1,10-3.29,17.65-9.28,22.72-17.8.07-.15.26-.44.33-.59s.14-.31.2-.48c.13-.32.27-.65.39-1l.38-1c.48-1.36.93-2.76,1.35-4.17s.8-2.83,1.14-4.28.63-2.9.85-4.38c.31,1.47.55,3,.75,4.46s.34,3,.45,4.54.18,3.05.2,4.6c0,.38,0,.77,0,1.16s0,.79,0,1.19c0,.19,0,.4,0,.6s0,.41,0,.62l0,2.3a21.67,21.67,0,0,0,1.73,7.07c.42.87,1.59,1.11,2,.59,1-1.17,2.52-3.62,4.09-8.27,4.42-13.07,2.65-29.93,1.93-35.24A.36.36,0,0,1,186.53,200.42Z"/><path class="cls-4" d="M124,23.77a22.06,22.06,0,0,1,7,.61,21,21,0,0,1,6,2.54,17.74,17.74,0,0,1,4.53,4,14.34,14.34,0,0,1,2.64,5.17,12.49,12.49,0,0,1-.09,7,12.94,12.94,0,0,1-1.48,3.18,14.2,14.2,0,0,1-2.36,2.82,2.85,2.85,0,0,0-.54.7,3.51,3.51,0,0,0-.34.85,3.82,3.82,0,0,0-.1,1,4.3,4.3,0,0,0,.14,1l.91,3.45a4.12,4.12,0,0,1,.13,1.51,3.88,3.88,0,0,1-.38,1.36,3.5,3.5,0,0,1-.83,1.07,2.92,2.92,0,0,1-1.21.63l-8.51,2.19a3.57,3.57,0,0,1-1.49,0,3.81,3.81,0,0,1-1.39-.56,4.28,4.28,0,0,1-1.13-1.08,4.38,4.38,0,0,1-.69-1.48l-1-3.71a4.33,4.33,0,0,0-.4-1,4.25,4.25,0,0,0-.64-.87,3.91,3.91,0,0,0-.83-.68,3.77,3.77,0,0,0-1-.44,20.87,20.87,0,0,1-4.27-1.77,18.82,18.82,0,0,1-3.69-2.63,16.19,16.19,0,0,1-2.82-3.39,13.87,13.87,0,0,1-1.7-4,12.35,12.35,0,0,1,.08-6.45,13.44,13.44,0,0,1,3.12-5.46,16.59,16.59,0,0,1,5.37-3.81A20.23,20.23,0,0,1,124,23.77Z"/><path class="cls-4" d="M153.51,51.35l2.39,3.25a3.41,3.41,0,0,1,.65,2,3,3,0,0,1-.17,1,2.29,2.29,0,0,1-.5.82l-7.07,7.39a3.37,3.37,0,0,0-.88,1.74,4.38,4.38,0,0,0,.07,2,4.1,4.1,0,0,0,.91,1.71,3.07,3.07,0,0,0,1.61,1l9.18,2a2.76,2.76,0,0,1,1.06.52,3.56,3.56,0,0,1,.82.94,4.54,4.54,0,0,1,.5,1.24,4.7,4.7,0,0,1,.1,1.41,4.26,4.26,0,0,1-.2,1,3.36,3.36,0,0,1-.4.83,3,3,0,0,1-.56.65,2.66,2.66,0,0,1-.7.42l-.3.1a1.67,1.67,0,0,1-.31,0,1.82,1.82,0,0,1-.33,0,1.86,1.86,0,0,1-.33,0L139.47,77.6l-.39,0h-.38a2.32,2.32,0,0,0-.38,0,2.66,2.66,0,0,0-.38.1,2.75,2.75,0,0,0-.36.15l-.35.19-.33.25a3.92,3.92,0,0,0-.31.28L117.91,98.1a4,4,0,0,1-.3.29l-.33.25c-.11.08-.23.14-.34.21l-.36.16a3.4,3.4,0,0,1-.94.23,3.22,3.22,0,0,1-.93,0,3.12,3.12,0,0,1-.88-.33,2.92,2.92,0,0,1-.74-.63l-.56-.64a4.15,4.15,0,0,1-.83-1.53,4.88,4.88,0,0,1-.17-1.75,5.4,5.4,0,0,1,.46-1.75A5,5,0,0,1,113.07,91l9.83-9.65a4.51,4.51,0,0,0,1.21-2.09,4.63,4.63,0,0,0,0-2.25,4.33,4.33,0,0,0-1-1.91,3.8,3.8,0,0,0-2-1.07l-13.58-2.6A3.39,3.39,0,0,1,105.28,70a3.51,3.51,0,0,1-.51-1.25,3.67,3.67,0,0,1,0-1.4l.38-1.69a3.06,3.06,0,0,1,.36-.94,3.38,3.38,0,0,1,.58-.77,3.27,3.27,0,0,1,.77-.57,3.44,3.44,0,0,1,.89-.35c.12,0,.24-.05.37-.06s.25,0,.38,0l.38,0,.39.07L134,68.51l.4.07h.39a2.58,2.58,0,0,0,.39,0l.38-.08.36-.13a2.91,2.91,0,0,0,.35-.18,3.62,3.62,0,0,0,.32-.22,3.88,3.88,0,0,0,.31-.26Z"/><path class="cls-3" d="M225.3,146.8a4.4,4.4,0,0,1-2.37.6c-2.58,0-7.06-1.75-12.41-11.24h0c-8.82-16.1-17.86-19.53-18.25-19.67a1,1,0,0,0-1.34.63,1.06,1.06,0,0,0,.63,1.36c.09,0,9.16,3.48,17.83,20v0a8.16,8.16,0,0,1-2.24,2.67c3.64,5.68,12.94,47.67-53.08,60.84a155.61,155.61,0,0,1-30.2,3.39c-38.65,0-44.35-21.77-43-37.25a10.8,10.8,0,0,0-2.75-1.34c1.11-1.94,2.86-5.26,5.5-10.89a24.19,24.19,0,0,0,2.15-11.8,1,1,0,0,0-1.11-1,1.05,1.05,0,0,0-1,1.12A21.79,21.79,0,0,1,81.68,155a118.48,118.48,0,0,1-6.29,12.19h0c-4.57,5.69-10.85,9-13.31,11.32a1.94,1.94,0,0,1-1.35.59c-3.59,0-7.52-11.22,3.13-22.31,12-12.53,13.12-23.2,16.31-26.35,1-1,2.86-1.35,4.91-1.35a41.51,41.51,0,0,1,9.78,1.58c6.69-9.15,12-7.85,38.75-14.41,18.61-4.57,30-5.51,36.25-5.51a28.82,28.82,0,0,1,6.18.46h0s.63-.13,8.66-5c2.77-1.68,4.74-2.58,6.74-2.58,4.12,0,8.3,3.85,19.68,12.57C228,129.2,225.3,146.8,225.3,146.8Z"/><path class="cls-1" d="M197.19,148.21s12.26-22.9-12.47-28.59-31.5,11.18-28.3,21.63c0,0-10.86-.33-13.09,3.24,0,0-7.42-24.53-39.4-7.51-18.85,10-12.34,29.1-4.29,33.42,1.15.62,1.85,2.24.63,4.74a13.31,13.31,0,0,0-1.21,7.67c1,7.3,7.9,10.53,25.78,8.09,1.73-.23,3.39-.54,5-.89l.38-.09,1.16-.28a59.75,59.75,0,0,0,27.85-15.88,11.11,11.11,0,0,0,.18-7.65c-1.55-4.17-5.89-6.17-5.93-6.19v0c-2-1.06-4.35-1.82-6-.92-3.12,1.69-5.59,3.83-6,.34-.21-1.63.3-9.89,10.13-12.59s14.09,1.94,14.63,4.33c.36,1.63-.52,4.87-2.8,5-1.24.06-1.72,1.08-2.15,2.3a2,2,0,0,0,.23,1.9,14.41,14.41,0,0,1,2.43,4.18,15,15,0,0,1,0,10.07A37.06,37.06,0,0,0,183.09,176l.46-.09.62-.13a39.16,39.16,0,0,0,7.51-2.47C206.52,166.71,199.3,149.82,197.19,148.21Z"/><path class="cls-1" d="M176.2,182.09a42.6,42.6,0,0,1-14.89-2.7,65.39,65.39,0,0,1-25.68,14.77c4,2.68,11.5,4.82,25.08.74,13.17-4,18.57-9.19,20.75-13.15A42.35,42.35,0,0,1,176.2,182.09Z"/><path class="cls-4" d="M135.53,144.63c-2.31-5.91-9.66-8.77-17.72-7.47a13.6,13.6,0,1,1-16.31,13.32,13.72,13.72,0,0,1,.86-4.77c-3.41,4.13-4.75,9-3.08,13.3,2.83,7.26,13.24,9.92,23.25,6S138.36,151.89,135.53,144.63Z"/><path class="cls-4" d="M183.87,145.29a11.92,11.92,0,0,1-7.34-21.3c-6.73.6-12.08,4.9-12.54,10.54-.53,6.49,5.63,12.28,13.76,12.94a16.09,16.09,0,0,0,12.35-3.94A11.78,11.78,0,0,1,183.87,145.29Z"/><path class="cls-4" d="M370.7,80.05l-4.92,26.21-4.48,1.79a72,72,0,0,0-15.8-8.51,42,42,0,0,0-14.89-3.14q-9,0-14.34,4.82t-5.38,11.08q0,6.51,5.94,11t18.71,10.53a177.41,177.41,0,0,1,20,10.42,45.29,45.29,0,0,1,13.22,12.65q5.49,7.85,5.49,19.27a40,40,0,0,1-6.72,22.51,46.16,46.16,0,0,1-19,16.13q-12.33,5.93-28.45,5.93a108.13,108.13,0,0,1-42.79-9.18l4.26-28.22,3.36-1.8a65.88,65.88,0,0,0,19.6,12q10.64,4.14,18.93,4.14,9.85,0,15.34-4.81a14.85,14.85,0,0,0,5.49-11.54,14,14,0,0,0-5.93-11.65q-5.94-4.47-19.16-10.75a171,171,0,0,1-19.71-10.08,43.19,43.19,0,0,1-13-12.55q-5.39-7.83-5.38-19a40.38,40.38,0,0,1,6.72-22.73,45.64,45.64,0,0,1,18.82-16q12.09-5.82,27.55-5.82A96,96,0,0,1,370.7,80.05Z"/><path class="cls-4" d="M423.34,172.79l1.57,45.92H395.12l1.57-43.23L395.34,63.7l29.8-2.24Zm30.25-11.2q12.09,19.49,36.28,52.19l-.22,3.14a155.54,155.54,0,0,1-16.69,2.8L462.1,221,459,219.6a473.14,473.14,0,0,1-34-55.33v-2l26-37,5.37-10.75h31.36Z"/><path class="cls-4" d="M604.56,199.22l-2.68,15.68a32.55,32.55,0,0,1-17,5.6,20.22,20.22,0,0,1-10.75-5.15q-4.26-4-6.5-11.65h-2q-12.76,12.56-26.44,16.35-17,0-25.87-7.73T504.66,190l.45-26.44-1.12-47,28.89-2.46-.67,66.08q-.23,7.84,3.14,11.87t10.08,4q9.86,0,19.49-8.73V116.56l28.44-2.46-2,77.5q0,3.59,1.23,5.16a4.69,4.69,0,0,0,3.92,1.56,25.56,25.56,0,0,0,6-.89Z"/><path class="cls-4" d="M707.16,126.42q10.53,13.21,10.53,37.41,0,27.33-13.56,42.22T665.94,221a88.54,88.54,0,0,1-15-1.35l.67,40.55H622l1.57-84.45-1.34-59.14,28.45-2.46-.23,15.23h1.57a77.18,77.18,0,0,1,12.1-9.74,69.48,69.48,0,0,1,13-6.39Q696.63,113.2,707.16,126.42Zm-23.3,66.75q6-8.28,6-24.42,0-15.67-5-23.63t-14.9-8q-9.63,0-19.49,9.63l-.22,26,.45,25.31a40.13,40.13,0,0,0,15.45,3.36Q677.82,201.46,683.86,193.17Z"/><path class="cls-4" d="M823.19,126.42q10.53,13.21,10.53,37.41,0,27.33-13.55,42.22T782,221a88.33,88.33,0,0,1-15-1.35l.67,40.55H738.07l1.57-84.45-1.35-59.14,28.45-2.46-.22,15.23h1.57a77.14,77.14,0,0,1,12.09-9.74,69.48,69.48,0,0,1,13-6.39Q812.67,113.2,823.19,126.42Zm-23.3,66.75q6.06-8.28,6.05-24.42,0-15.67-5-23.63t-14.89-8q-9.64,0-19.49,9.63l-.23,26,.45,25.31a40.18,40.18,0,0,0,15.46,3.36Q793.84,201.46,799.89,193.17Z"/><path class="cls-4" d="M934.74,170.32l-60.48.45q2,28,28.45,28,13.89,0,30.91-7.84l2.47,1.57-4.48,22.18q-17,6.27-32,6.27-24.65,0-38.65-14.34t-14-39.65q0-25.08,13.67-39.76t37-14.67q19.94,0,30.8,10.86t10.86,30.36a94.64,94.64,0,0,1-1.12,13Zm-21.5-19.93q0-9-4-13.56t-11.87-4.59A20,20,0,0,0,882.77,138q-5.82,5.72-7.84,16.47l37.86-.9Z"/><path class="cls-4" d="M1023,114.77v27.55l-3.14,1.12a21.65,21.65,0,0,0-8.28-1.57q-13,0-23.53,16.8v14.12l1.57,45.92H959.83l1.79-43-1.34-59.14,28.22-2.46-.22,20.38h1.79q11-20.16,27.33-20.16A48,48,0,0,1,1023,114.77Z"/></svg>